<?xml version="1.0" standalone="no"?>
<!DOCTYPE svg PUBLIC "-//W3C//DTD SVG 20010904//EN"
 "http://www.w3.org/TR/2001/REC-SVG-20010904/DTD/svg10.dtd">
<svg version="1.0" xmlns="http://www.w3.org/2000/svg"
 width="542.000000pt" height="542.000000pt" viewBox="0 0 542.000000 542.000000"
 preserveAspectRatio="xMidYMid meet">
<metadata>
Created by potrace 1.14, written by Peter Selinger 2001-2017
</metadata>
<g transform="translate(0.000000,542.000000) scale(0.100000,-0.100000)"
fill="#000000" stroke="none">
<path d="M2860 2770 l0 -1191 548 4 c505 4 554 6 642 24 179 39 318 96 457
189 149 99 295 262 373 414 130 257 163 607 86 913 -79 309 -276 552 -565 696
-107 53 -182 80 -316 113 -86 20 -117 21 -657 25 l-568 4 0 -1191z m982 700
c373 -36 597 -252 627 -605 28 -332 -96 -589 -342 -710 -150 -73 -176 -78
-479 -83 l-268 -4 0 699 c0 385 3 703 7 706 10 11 335 8 455 -3z"/>
<path d="M590 2765 l0 -1175 260 0 260 0 0 550 0 550 108 0 107 0 405 -550
405 -549 319 -1 c253 0 316 3 309 13 -137 174 -973 1322 -970 1330 3 7 181
235 395 507 l390 495 -296 3 -297 3 -30 -35 c-16 -18 -210 -264 -430 -544
-220 -281 -403 -511 -407 -511 -5 -1 -8 244 -8 544 l0 545 -260 0 -260 0 0
-1175z"/>
</g>
</svg>
